# xmcd
#
# Track frame offsets:
#	150
#	17161
#	36050
#	60287
#	85616
#	118710
#	139062
#
# Disc length: 2207 seconds
#
# Revision: 7
# Processed by: cddbd v1.5.2PL0 Copyright (c) Steve Scherf et al.
# Submitted via: audiograbber 1.83.01
#
DISCID=4e089d07
DTITLE=Foghat - The Complete Bearsville Albums Collection [CD 09) - Boogie Mote
DTITLE=l [remastered 2016]
DYEAR=1979
DGENRE=Rock
TTITLE0=Somebody's Been Sleepin' In My Bed
TTITLE1=Third Time Lucky (First Time I Was A Fool)
TTITLE2=Comin' Down With Love
TTITLE3=Paradise Alley
TTITLE4=Boogie Motel
TTITLE5=Love In Motion
TTITLE6=Nervous Release
EXTD=
EXTT0=
EXTT1=
EXTT2=
EXTT3=
EXTT4=
EXTT5=
EXTT6=
PLAYORDER=
